<svg width="1920" height="128" viewBox="0 0 1920 128" fill="none" xmlns="http://www.w3.org/2000/svg">
<path fill-rule="evenodd" clip-rule="evenodd" d="M0 53.181L40 50.0635C80 46.9461 160 40.7111 240 37.5937C320 34.4762 400 34.4762 480 40.7111C560 46.9461 640 59.4159 720 53.181C800 46.9461 880 22.0064 960 22.0064C1040 22.0064 1120 46.9461 1200 40.7111C1280 34.4762 1360 -2.9333 1440 0.184157C1520 3.30162 1600 46.9461 1680 59.4159C1760 71.8857 1840 53.181 1880 43.8286L1920 34.4762V128H1880C1840 128 1760 128 1680 128C1600 128 1520 128 1440 128C1360 128 1280 128 1200 128C1120 128 1040 128 960 128C880 128 800 128 720 128C640 128 560 128 480 128C400 128 320 128 240 128C160 128 80 128 40 128H0V53.181Z" fill="url(#paint0_linear_9_263)"/>
<defs>
<linearGradient id="paint0_linear_9_263" x1="960" y1="21.5001" x2="960" y2="128" gradientUnits="userSpaceOnUse">
<stop stop-color="#68D597"/>
<stop offset="1" stop-color="#90DBB4"/>
</linearGradient>
</defs>
</svg>
